<?xml version="1.0" encoding="UTF-8" standalone="no"?>
<!-- Generator: Adobe Illustrator 16.0.0, SVG Export Plug-In . SVG Version: 6.00 Build 0)  -->

<svg
   version="1.1"
   x="0px"
   y="0px"
   width="283.464px"
   height="325.009px"
   viewBox="0 0 283.464 325.009"
   enable-background="new 0 0 283.464 325.009"
   xml:space="preserve"
   id="svg1191"
   sodipodi:docname="LogoBody.svg"
   inkscape:version="1.3 (0e150ed6c4, 2023-07-21)"
   xmlns:inkscape="http://www.inkscape.org/namespaces/inkscape"
   xmlns:sodipodi="http://sodipodi.sourceforge.net/DTD/sodipodi-0.dtd"
   xmlns="http://www.w3.org/2000/svg"
   xmlns:svg="http://www.w3.org/2000/svg"><defs
   id="defs1191"><linearGradient
     id="SVGID_1_"
     gradientUnits="userSpaceOnUse"
     x1="-63.9634"
     y1="257.7568"
     x2="-63.9634"
     y2="218.8848"
     gradientTransform="matrix(-1.148,-0.0452,0.0452,1.1525,-46.125,-8.9566)">&#10;		<stop
   offset="0"
   style="stop-color:#005582"
   id="stop1" />&#10;		<stop
   offset="0.1059"
   style="stop-color:#007FC8"
   id="stop2" />&#10;		<stop
   offset="0.1961"
   style="stop-color:#156CAB"
   id="stop3" />&#10;		<stop
   offset="0.3357"
   style="stop-color:#315386"
   id="stop4" />&#10;		<stop
   offset="0.4749"
   style="stop-color:#474068"
   id="stop5" />&#10;		<stop
   offset="0.6118"
   style="stop-color:#563253"
   id="stop6" />&#10;		<stop
   offset="0.7453"
   style="stop-color:#602A46"
   id="stop7" />&#10;		<stop
   offset="0.8715"
   style="stop-color:#632742"
   id="stop8" />&#10;		<stop
   offset="0.9263"
   style="stop-color:#652843"
   id="stop9" />&#10;		<stop
   offset="0.9461"
   style="stop-color:#6C2A48"
   id="stop10" />&#10;		<stop
   offset="0.9602"
   style="stop-color:#772E4F"
   id="stop11" />&#10;		<stop
   offset="0.9715"
   style="stop-color:#88345A"
   id="stop12" />&#10;		<stop
   offset="0.9813"
   style="stop-color:#9E3B68"
   id="stop13" />&#10;		<stop
   offset="0.9899"
   style="stop-color:#BA4479"
   id="stop14" />&#10;		<stop
   offset="0.9975"
   style="stop-color:#D94F8D"
   id="stop15" />&#10;		<stop
   offset="1"
   style="stop-color:#E55395"
   id="stop16" />&#10;	</linearGradient><linearGradient
     id="SVGID_54_"
     gradientUnits="userSpaceOnUse"
     x1="-75.6616"
     y1="-238.9736"
     x2="159.3346"
     y2="-263.4732"
     gradientTransform="matrix(0.9808,-0.1951,0.1951,0.9808,-58.9235,599.2986)">&#10;		<stop
   offset="0"
   style="stop-color:#005582"
   id="stop1109" />&#10;		<stop
   offset="0.0334"
   style="stop-color:#005B8B"
   id="stop1110" />&#10;		<stop
   offset="0.1447"
   style="stop-color:#006BA6"
   id="stop1111" />&#10;		<stop
   offset="0.2586"
   style="stop-color:#0076B9"
   id="stop1112" />&#10;		<stop
   offset="0.3755"
   style="stop-color:#007DC4"
   id="stop1113" />&#10;		<stop
   offset="0.5"
   style="stop-color:#007FC8"
   id="stop1114" />&#10;		<stop
   offset="0.657"
   style="stop-color:#007DC5"
   id="stop1115" />&#10;		<stop
   offset="0.7636"
   style="stop-color:#0078BC"
   id="stop1116" />&#10;		<stop
   offset="0.8552"
   style="stop-color:#006FAD"
   id="stop1117" />&#10;		<stop
   offset="0.9379"
   style="stop-color:#006298"
   id="stop1118" />&#10;		<stop
   offset="1"
   style="stop-color:#005582"
   id="stop1119" />&#10;	</linearGradient><linearGradient
     id="SVGID_2_"
     gradientUnits="userSpaceOnUse"
     x1="123.3403"
     y1="-2.2270999"
     x2="123.3403"
     y2="257.97159">&#10;				<stop
   offset="0"
   style="stop-color:#005582"
   id="stop17" />&#10;				<stop
   offset="0.1501"
   style="stop-color:#007FC8"
   id="stop18" />&#10;				<stop
   offset="0.2883"
   style="stop-color:#0380C6"
   id="stop19" />&#10;				<stop
   offset="0.3703"
   style="stop-color:#0B82C0"
   id="stop20" />&#10;				<stop
   offset="0.4376"
   style="stop-color:#1986B4"
   id="stop21" />&#10;				<stop
   offset="0.497"
   style="stop-color:#2D8BA5"
   id="stop22" />&#10;				<stop
   offset="0.5512"
   style="stop-color:#479390"
   id="stop23" />&#10;				<stop
   offset="0.6015"
   style="stop-color:#689B77"
   id="stop24" />&#10;				<stop
   offset="0.649"
   style="stop-color:#8EA659"
   id="stop25" />&#10;				<stop
   offset="0.6941"
   style="stop-color:#BAB236"
   id="stop26" />&#10;				<stop
   offset="0.7359"
   style="stop-color:#EBC010"
   id="stop27" />&#10;				<stop
   offset="0.7513"
   style="stop-color:#FFC500"
   id="stop28" />&#10;				<stop
   offset="0.7535"
   style="stop-color:#FDBE0A"
   id="stop29" />&#10;				<stop
   offset="0.7627"
   style="stop-color:#F7A12F"
   id="stop30" />&#10;				<stop
   offset="0.7727"
   style="stop-color:#F1894E"
   id="stop31" />&#10;				<stop
   offset="0.7835"
   style="stop-color:#ED7568"
   id="stop32" />&#10;				<stop
   offset="0.7954"
   style="stop-color:#E9667C"
   id="stop33" />&#10;				<stop
   offset="0.809"
   style="stop-color:#E75B8A"
   id="stop34" />&#10;				<stop
   offset="0.8256"
   style="stop-color:#E55593"
   id="stop35" />&#10;				<stop
   offset="0.8543"
   style="stop-color:#E55395"
   id="stop36" />&#10;				<stop
   offset="0.9848"
   style="stop-color:#632742"
   id="stop37" />&#10;			</linearGradient><linearGradient
     id="SVGID_3_"
     gradientUnits="userSpaceOnUse"
     x1="117.2729"
     y1="-2.2279999"
     x2="117.2729"
     y2="257.9718">&#10;				<stop
   offset="0"
   style="stop-color:#005582"
   id="stop38" />&#10;				<stop
   offset="0.1501"
   style="stop-color:#007FC8"
   id="stop39" />&#10;				<stop
   offset="0.2883"
   style="stop-color:#0380C6"
   id="stop40" />&#10;				<stop
   offset="0.3703"
   style="stop-color:#0B82C0"
   id="stop41" />&#10;				<stop
   offset="0.4376"
   style="stop-color:#1986B4"
   id="stop42" />&#10;				<stop
   offset="0.497"
   style="stop-color:#2D8BA5"
   id="stop43" />&#10;				<stop
   offset="0.5512"
   style="stop-color:#479390"
   id="stop44" />&#10;				<stop
   offset="0.6015"
   style="stop-color:#689B77"
   id="stop45" />&#10;				<stop
   offset="0.649"
   style="stop-color:#8EA659"
   id="stop46" />&#10;				<stop
   offset="0.6941"
   style="stop-color:#BAB236"
   id="stop47" />&#10;				<stop
   offset="0.7359"
   style="stop-color:#EBC010"
   id="stop48" />&#10;				<stop
   offset="0.7513"
   style="stop-color:#FFC500"
   id="stop49" />&#10;				<stop
   offset="0.7535"
   style="stop-color:#FDBE0A"
   id="stop50" />&#10;				<stop
   offset="0.7627"
   style="stop-color:#F7A12F"
   id="stop51" />&#10;				<stop
   offset="0.7727"
   style="stop-color:#F1894E"
   id="stop52" />&#10;				<stop
   offset="0.7835"
   style="stop-color:#ED7568"
   id="stop53" />&#10;				<stop
   offset="0.7954"
   style="stop-color:#E9667C"
   id="stop54" />&#10;				<stop
   offset="0.809"
   style="stop-color:#E75B8A"
   id="stop55" />&#10;				<stop
   offset="0.8256"
   style="stop-color:#E55593"
   id="stop56" />&#10;				<stop
   offset="0.8543"
   style="stop-color:#E55395"
   id="stop57" />&#10;				<stop
   offset="0.9848"
   style="stop-color:#632742"
   id="stop58" />&#10;			</linearGradient><linearGradient
     id="SVGID_5_"
     gradientUnits="userSpaceOnUse"
     x1="54.939499"
     y1="-2.2256"
     x2="54.9394"
     y2="257.96921">&#10;				<stop
   offset="0"
   style="stop-color:#005582"
   id="stop80" />&#10;				<stop
   offset="0.1501"
   style="stop-color:#007FC8"
   id="stop81" />&#10;				<stop
   offset="0.2883"
   style="stop-color:#0380C6"
   id="stop82" />&#10;				<stop
   offset="0.3703"
   style="stop-color:#0B82C0"
   id="stop83" />&#10;				<stop
   offset="0.4376"
   style="stop-color:#1986B4"
   id="stop84" />&#10;				<stop
   offset="0.497"
   style="stop-color:#2D8BA5"
   id="stop85" />&#10;				<stop
   offset="0.5512"
   style="stop-color:#479390"
   id="stop86" />&#10;				<stop
   offset="0.6015"
   style="stop-color:#689B77"
   id="stop87" />&#10;				<stop
   offset="0.649"
   style="stop-color:#8EA659"
   id="stop88" />&#10;				<stop
   offset="0.6941"
   style="stop-color:#BAB236"
   id="stop89" />&#10;				<stop
   offset="0.7359"
   style="stop-color:#EBC010"
   id="stop90" />&#10;				<stop
   offset="0.7513"
   style="stop-color:#FFC500"
   id="stop91" />&#10;				<stop
   offset="0.7535"
   style="stop-color:#FDBE0A"
   id="stop92" />&#10;				<stop
   offset="0.7627"
   style="stop-color:#F7A12F"
   id="stop93" />&#10;				<stop
   offset="0.7727"
   style="stop-color:#F1894E"
   id="stop94" />&#10;				<stop
   offset="0.7835"
   style="stop-color:#ED7568"
   id="stop95" />&#10;				<stop
   offset="0.7954"
   style="stop-color:#E9667C"
   id="stop96" />&#10;				<stop
   offset="0.809"
   style="stop-color:#E75B8A"
   id="stop97" />&#10;				<stop
   offset="0.8256"
   style="stop-color:#E55593"
   id="stop98" />&#10;				<stop
   offset="0.8543"
   style="stop-color:#E55395"
   id="stop99" />&#10;				<stop
   offset="0.9848"
   style="stop-color:#632742"
   id="stop100" />&#10;			</linearGradient><linearGradient
     id="SVGID_8_"
     gradientUnits="userSpaceOnUse"
     x1="132.394"
     y1="-2.2256"
     x2="132.394"
     y2="257.97061">&#10;				<stop
   offset="0"
   style="stop-color:#005582"
   id="stop143" />&#10;				<stop
   offset="0.1501"
   style="stop-color:#007FC8"
   id="stop144" />&#10;				<stop
   offset="0.2883"
   style="stop-color:#0380C6"
   id="stop145" />&#10;				<stop
   offset="0.3703"
   style="stop-color:#0B82C0"
   id="stop146" />&#10;				<stop
   offset="0.4376"
   style="stop-color:#1986B4"
   id="stop147" />&#10;				<stop
   offset="0.497"
   style="stop-color:#2D8BA5"
   id="stop148" />&#10;				<stop
   offset="0.5512"
   style="stop-color:#479390"
   id="stop149" />&#10;				<stop
   offset="0.6015"
   style="stop-color:#689B77"
   id="stop150" />&#10;				<stop
   offset="0.649"
   style="stop-color:#8EA659"
   id="stop151" />&#10;				<stop
   offset="0.6941"
   style="stop-color:#BAB236"
   id="stop152" />&#10;				<stop
   offset="0.7359"
   style="stop-color:#EBC010"
   id="stop153" />&#10;				<stop
   offset="0.7513"
   style="stop-color:#FFC500"
   id="stop154" />&#10;				<stop
   offset="0.7535"
   style="stop-color:#FDBE0A"
   id="stop155" />&#10;				<stop
   offset="0.7627"
   style="stop-color:#F7A12F"
   id="stop156" />&#10;				<stop
   offset="0.7727"
   style="stop-color:#F1894E"
   id="stop157" />&#10;				<stop
   offset="0.7835"
   style="stop-color:#ED7568"
   id="stop158" />&#10;				<stop
   offset="0.7954"
   style="stop-color:#E9667C"
   id="stop159" />&#10;				<stop
   offset="0.809"
   style="stop-color:#E75B8A"
   id="stop160" />&#10;				<stop
   offset="0.8256"
   style="stop-color:#E55593"
   id="stop161" />&#10;				<stop
   offset="0.8543"
   style="stop-color:#E55395"
   id="stop162" />&#10;				<stop
   offset="0.9848"
   style="stop-color:#632742"
   id="stop163" />&#10;			</linearGradient><linearGradient
     id="SVGID_25_"
     gradientUnits="userSpaceOnUse"
     x1="191.9761"
     y1="-2.2354"
     x2="191.9761"
     y2="257.97601">&#10;				<stop
   offset="0"
   style="stop-color:#005582"
   id="stop500" />&#10;				<stop
   offset="0.1501"
   style="stop-color:#007FC8"
   id="stop501" />&#10;				<stop
   offset="0.2883"
   style="stop-color:#0380C6"
   id="stop502" />&#10;				<stop
   offset="0.3703"
   style="stop-color:#0B82C0"
   id="stop503" />&#10;				<stop
   offset="0.4376"
   style="stop-color:#1986B4"
   id="stop504" />&#10;				<stop
   offset="0.497"
   style="stop-color:#2D8BA5"
   id="stop505" />&#10;				<stop
   offset="0.5512"
   style="stop-color:#479390"
   id="stop506" />&#10;				<stop
   offset="0.6015"
   style="stop-color:#689B77"
   id="stop507" />&#10;				<stop
   offset="0.649"
   style="stop-color:#8EA659"
   id="stop508" />&#10;				<stop
   offset="0.6941"
   style="stop-color:#BAB236"
   id="stop509" />&#10;				<stop
   offset="0.7359"
   style="stop-color:#EBC010"
   id="stop510" />&#10;				<stop
   offset="0.7513"
   style="stop-color:#FFC500"
   id="stop511" />&#10;				<stop
   offset="0.7535"
   style="stop-color:#FDBE0A"
   id="stop512" />&#10;				<stop
   offset="0.7627"
   style="stop-color:#F7A12F"
   id="stop513" />&#10;				<stop
   offset="0.7727"
   style="stop-color:#F1894E"
   id="stop514" />&#10;				<stop
   offset="0.7835"
   style="stop-color:#ED7568"
   id="stop515" />&#10;				<stop
   offset="0.7954"
   style="stop-color:#E9667C"
   id="stop516" />&#10;				<stop
   offset="0.809"
   style="stop-color:#E75B8A"
   id="stop517" />&#10;				<stop
   offset="0.8256"
   style="stop-color:#E55593"
   id="stop518" />&#10;				<stop
   offset="0.8543"
   style="stop-color:#E55395"
   id="stop519" />&#10;				<stop
   offset="0.9848"
   style="stop-color:#632742"
   id="stop520" />&#10;			</linearGradient><linearGradient
     id="SVGID_26_"
     gradientUnits="userSpaceOnUse"
     x1="110.1328"
     y1="-2.2031"
     x2="110.1328"
     y2="257.96091">&#10;				<stop
   offset="0"
   style="stop-color:#005582"
   id="stop521" />&#10;				<stop
   offset="0.1501"
   style="stop-color:#007FC8"
   id="stop522" />&#10;				<stop
   offset="0.2883"
   style="stop-color:#0380C6"
   id="stop523" />&#10;				<stop
   offset="0.3703"
   style="stop-color:#0B82C0"
   id="stop524" />&#10;				<stop
   offset="0.4376"
   style="stop-color:#1986B4"
   id="stop525" />&#10;				<stop
   offset="0.497"
   style="stop-color:#2D8BA5"
   id="stop526" />&#10;				<stop
   offset="0.5512"
   style="stop-color:#479390"
   id="stop527" />&#10;				<stop
   offset="0.6015"
   style="stop-color:#689B77"
   id="stop528" />&#10;				<stop
   offset="0.649"
   style="stop-color:#8EA659"
   id="stop529" />&#10;				<stop
   offset="0.6941"
   style="stop-color:#BAB236"
   id="stop530" />&#10;				<stop
   offset="0.7359"
   style="stop-color:#EBC010"
   id="stop531" />&#10;				<stop
   offset="0.7513"
   style="stop-color:#FFC500"
   id="stop532" />&#10;				<stop
   offset="0.7535"
   style="stop-color:#FDBE0A"
   id="stop533" />&#10;				<stop
   offset="0.7627"
   style="stop-color:#F7A12F"
   id="stop534" />&#10;				<stop
   offset="0.7727"
   style="stop-color:#F1894E"
   id="stop535" />&#10;				<stop
   offset="0.7835"
   style="stop-color:#ED7568"
   id="stop536" />&#10;				<stop
   offset="0.7954"
   style="stop-color:#E9667C"
   id="stop537" />&#10;				<stop
   offset="0.809"
   style="stop-color:#E75B8A"
   id="stop538" />&#10;				<stop
   offset="0.8256"
   style="stop-color:#E55593"
   id="stop539" />&#10;				<stop
   offset="0.8543"
   style="stop-color:#E55395"
   id="stop540" />&#10;				<stop
   offset="0.9848"
   style="stop-color:#632742"
   id="stop541" />&#10;			</linearGradient><linearGradient
     id="SVGID_38_"
     gradientUnits="userSpaceOnUse"
     x1="88.504898"
     y1="-2.2720001"
     x2="88.504898"
     y2="258.03009">&#10;				<stop
   offset="0"
   style="stop-color:#005582"
   id="stop773" />&#10;				<stop
   offset="0.1501"
   style="stop-color:#007FC8"
   id="stop774" />&#10;				<stop
   offset="0.2883"
   style="stop-color:#0380C6"
   id="stop775" />&#10;				<stop
   offset="0.3703"
   style="stop-color:#0B82C0"
   id="stop776" />&#10;				<stop
   offset="0.4376"
   style="stop-color:#1986B4"
   id="stop777" />&#10;				<stop
   offset="0.497"
   style="stop-color:#2D8BA5"
   id="stop778" />&#10;				<stop
   offset="0.5512"
   style="stop-color:#479390"
   id="stop779" />&#10;				<stop
   offset="0.6015"
   style="stop-color:#689B77"
   id="stop780" />&#10;				<stop
   offset="0.649"
   style="stop-color:#8EA659"
   id="stop781" />&#10;				<stop
   offset="0.6941"
   style="stop-color:#BAB236"
   id="stop782" />&#10;				<stop
   offset="0.7359"
   style="stop-color:#EBC010"
   id="stop783" />&#10;				<stop
   offset="0.7513"
   style="stop-color:#FFC500"
   id="stop784" />&#10;				<stop
   offset="0.7535"
   style="stop-color:#FDBE0A"
   id="stop785" />&#10;				<stop
   offset="0.7627"
   style="stop-color:#F7A12F"
   id="stop786" />&#10;				<stop
   offset="0.7727"
   style="stop-color:#F1894E"
   id="stop787" />&#10;				<stop
   offset="0.7835"
   style="stop-color:#ED7568"
   id="stop788" />&#10;				<stop
   offset="0.7954"
   style="stop-color:#E9667C"
   id="stop789" />&#10;				<stop
   offset="0.809"
   style="stop-color:#E75B8A"
   id="stop790" />&#10;				<stop
   offset="0.8256"
   style="stop-color:#E55593"
   id="stop791" />&#10;				<stop
   offset="0.8543"
   style="stop-color:#E55395"
   id="stop792" />&#10;				<stop
   offset="0.9848"
   style="stop-color:#632742"
   id="stop793" />&#10;			</linearGradient><linearGradient
     id="SVGID_39_"
     gradientUnits="userSpaceOnUse"
     x1="133.9438"
     y1="-2.0107"
     x2="133.9438"
     y2="257.90649">&#10;				<stop
   offset="0"
   style="stop-color:#005582"
   id="stop794" />&#10;				<stop
   offset="0.1501"
   style="stop-color:#007FC8"
   id="stop795" />&#10;				<stop
   offset="0.2883"
   style="stop-color:#0380C6"
   id="stop796" />&#10;				<stop
   offset="0.3703"
   style="stop-color:#0B82C0"
   id="stop797" />&#10;				<stop
   offset="0.4376"
   style="stop-color:#1986B4"
   id="stop798" />&#10;				<stop
   offset="0.497"
   style="stop-color:#2D8BA5"
   id="stop799" />&#10;				<stop
   offset="0.5512"
   style="stop-color:#479390"
   id="stop800" />&#10;				<stop
   offset="0.6015"
   style="stop-color:#689B77"
   id="stop801" />&#10;				<stop
   offset="0.649"
   style="stop-color:#8EA659"
   id="stop802" />&#10;				<stop
   offset="0.6941"
   style="stop-color:#BAB236"
   id="stop803" />&#10;				<stop
   offset="0.7359"
   style="stop-color:#EBC010"
   id="stop804" />&#10;				<stop
   offset="0.7513"
   style="stop-color:#FFC500"
   id="stop805" />&#10;				<stop
   offset="0.7535"
   style="stop-color:#FDBE0A"
   id="stop806" />&#10;				<stop
   offset="0.7627"
   style="stop-color:#F7A12F"
   id="stop807" />&#10;				<stop
   offset="0.7727"
   style="stop-color:#F1894E"
   id="stop808" />&#10;				<stop
   offset="0.7835"
   style="stop-color:#ED7568"
   id="stop809" />&#10;				<stop
   offset="0.7954"
   style="stop-color:#E9667C"
   id="stop810" />&#10;				<stop
   offset="0.809"
   style="stop-color:#E75B8A"
   id="stop811" />&#10;				<stop
   offset="0.8256"
   style="stop-color:#E55593"
   id="stop812" />&#10;				<stop
   offset="0.8543"
   style="stop-color:#E55395"
   id="stop813" />&#10;				<stop
   offset="0.9848"
   style="stop-color:#632742"
   id="stop814" />&#10;			</linearGradient><linearGradient
     id="SVGID_46_"
     gradientUnits="userSpaceOnUse"
     x1="141.7466"
     y1="-2.8223"
     x2="141.7466"
     y2="258.59991">&#10;				<stop
   offset="0"
   style="stop-color:#005582"
   id="stop941" />&#10;				<stop
   offset="0.1501"
   style="stop-color:#007FC8"
   id="stop942" />&#10;				<stop
   offset="0.2883"
   style="stop-color:#0380C6"
   id="stop943" />&#10;				<stop
   offset="0.3703"
   style="stop-color:#0B82C0"
   id="stop944" />&#10;				<stop
   offset="0.4376"
   style="stop-color:#1986B4"
   id="stop945" />&#10;				<stop
   offset="0.497"
   style="stop-color:#2D8BA5"
   id="stop946" />&#10;				<stop
   offset="0.5512"
   style="stop-color:#479390"
   id="stop947" />&#10;				<stop
   offset="0.6015"
   style="stop-color:#689B77"
   id="stop948" />&#10;				<stop
   offset="0.649"
   style="stop-color:#8EA659"
   id="stop949" />&#10;				<stop
   offset="0.6941"
   style="stop-color:#BAB236"
   id="stop950" />&#10;				<stop
   offset="0.7359"
   style="stop-color:#EBC010"
   id="stop951" />&#10;				<stop
   offset="0.7513"
   style="stop-color:#FFC500"
   id="stop952" />&#10;				<stop
   offset="0.7535"
   style="stop-color:#FDBE0A"
   id="stop953" />&#10;				<stop
   offset="0.7627"
   style="stop-color:#F7A12F"
   id="stop954" />&#10;				<stop
   offset="0.7727"
   style="stop-color:#F1894E"
   id="stop955" />&#10;				<stop
   offset="0.7835"
   style="stop-color:#ED7568"
   id="stop956" />&#10;				<stop
   offset="0.7954"
   style="stop-color:#E9667C"
   id="stop957" />&#10;				<stop
   offset="0.809"
   style="stop-color:#E75B8A"
   id="stop958" />&#10;				<stop
   offset="0.8256"
   style="stop-color:#E55593"
   id="stop959" />&#10;				<stop
   offset="0.8543"
   style="stop-color:#E55395"
   id="stop960" />&#10;				<stop
   offset="0.9848"
   style="stop-color:#632742"
   id="stop961" />&#10;			</linearGradient><linearGradient
     id="SVGID_56_"
     gradientUnits="userSpaceOnUse"
     x1="7.9302001"
     y1="269.20609"
     x2="242.93021"
     y2="244.7061">&#10;			<stop
   offset="0"
   style="stop-color:#005582"
   id="stop1131" />&#10;			<stop
   offset="0.0334"
   style="stop-color:#005B8B"
   id="stop1132" />&#10;			<stop
   offset="0.1447"
   style="stop-color:#006BA6"
   id="stop1133" />&#10;			<stop
   offset="0.2586"
   style="stop-color:#0076B9"
   id="stop1134" />&#10;			<stop
   offset="0.3755"
   style="stop-color:#007DC4"
   id="stop1135" />&#10;			<stop
   offset="0.5"
   style="stop-color:#007FC8"
   id="stop1136" />&#10;			<stop
   offset="0.657"
   style="stop-color:#007DC5"
   id="stop1137" />&#10;			<stop
   offset="0.7636"
   style="stop-color:#0078BC"
   id="stop1138" />&#10;			<stop
   offset="0.8552"
   style="stop-color:#006FAD"
   id="stop1139" />&#10;			<stop
   offset="0.9379"
   style="stop-color:#006298"
   id="stop1140" />&#10;			<stop
   offset="1"
   style="stop-color:#005582"
   id="stop1141" />&#10;		</linearGradient></defs><sodipodi:namedview
   id="namedview1191"
   pagecolor="#505050"
   bordercolor="#eeeeee"
   borderopacity="1"
   inkscape:showpageshadow="0"
   inkscape:pageopacity="0"
   inkscape:pagecheckerboard="0"
   inkscape:deskcolor="#d1d1d1"
   inkscape:zoom="2.3322431"
   inkscape:cx="96.044877"
   inkscape:cy="303.57041"
   inkscape:window-width="1280"
   inkscape:window-height="961"
   inkscape:window-x="-8"
   inkscape:window-y="-8"
   inkscape:window-maximized="1"
   inkscape:current-layer="svg1191" />&#10;<g
   id="fil">&#10;</g>&#10;<g
   id="marionnette">&#10;</g>&#10;<path
   fill="none"
   stroke="url(#SVGID_1_)"
   stroke-linecap="round"
   stroke-miterlimit="10"
   d="m 54.972,288.358 c 4.06,-24.095 -27.543,10.377 -21.55,-0.278 8.113,-14.423 -1.831,-4.124 -2.192,-13.331 -0.361,-9.213 -9.794,-6.192 -10.223,-17.114 0,0 -0.833,-14.832 25.001,-9.832"
   id="path16"
   style="stroke:url(#SVGID_1_)" /><path
   id="path37"
   style="fill:url(#SVGID_2_)"
   d="M 123.77539 1.2792969 C 120.26047 1.3005078 116.7257 1.7666259 113.18945 2.671875 C 97.990468 6.5628711 87.950635 16.355655 82.681641 31.056641 C 81.988641 32.994639 81.75464 35.096049 81.306641 37.123047 C 81.309284 37.122534 81.311812 37.123554 81.314453 37.123047 C 81.198918 37.779406 81.08136 38.434496 80.966797 39.089844 C 80.963497 39.092353 80.960337 39.093152 80.957031 39.095703 C 80.836031 39.734702 80.646469 40.367719 80.605469 41.011719 C 80.133469 48.416711 81.242331 55.553007 84.236328 62.375 C 84.726328 63.489999 85.339689 64.347985 86.554688 64.833984 C 87.825686 65.344984 88.978329 66.157923 89.486328 67.544922 C 89.654328 68.006921 89.787297 68.575719 89.654297 69.011719 C 89.598297 69.200719 88.828562 69.172578 88.226562 69.267578 C 91.15656 73.568574 94.573911 77.154159 98.878906 79.910156 C 99.065906 79.620157 99.133859 79.563719 99.130859 79.511719 C 99.107859 79.190719 99.092156 78.866828 99.035156 78.548828 C 98.453157 75.331831 99.478143 72.67981 101.74414 70.382812 C 103.74814 68.349815 106.06846 66.817765 108.68945 65.759766 C 113.27045 63.908767 118.09115 63.118078 122.99414 62.955078 C 126.77914 62.830078 130.54194 63.309954 134.21094 64.251953 C 137.05293 64.982952 139.85003 65.904298 142.33203 67.529297 C 144.53303 68.969295 146.40606 70.74544 147.78906 73.023438 C 148.77106 74.643436 148.50428 76.423111 148.61328 78.162109 C 148.61387 78.162373 148.61465 78.161847 148.61523 78.162109 C 148.50923 78.690109 148.40478 79.220047 148.30078 79.748047 C 151.73749 77.811777 154.67956 75.51339 156.81836 72.322266 C 156.81886 72.321513 156.81981 72.321066 156.82031 72.320312 C 157.06631 72.110313 157.35373 71.932547 157.55273 71.685547 C 161.61173 66.671552 164.46681 61.073697 165.75781 54.720703 C 165.86181 54.412703 166.00231 54.113734 166.07031 53.802734 C 168.09931 43.845744 166.95328 34.278803 162.48828 25.132812 C 162.21128 24.556813 161.80312 24.041046 161.45312 23.498047 C 160.66013 23.907046 160.26561 23.363796 159.84961 22.841797 C 159.51761 22.426797 159.05822 21.911125 158.57422 22.078125 C 156.52222 22.789124 153.58989 18.703905 153.33789 17.003906 C 153.13489 15.631908 152.21275 15.054672 150.96875 15.638672 C 150.21675 15.990672 149.55309 16.178625 148.74609 16.015625 C 147.78309 15.820625 146.94101 16.098423 146.29102 16.857422 C 145.04902 18.30142 143.32831 18.685141 141.57031 18.869141 C 140.63131 18.969141 139.35587 19.085983 139.04688 17.958984 C 138.71288 16.730986 138.73477 15.303577 140.13477 14.517578 C 141.31276 13.855579 142.24463 13.033592 142.64062 11.683594 C 142.77162 11.236594 145.6817 9.0802792 145.0957 6.9882812 C 144.1657 6.4962817 143.23859 6.0056245 142.30859 5.515625 C 142.30588 5.518119 142.3035 5.520943 142.30078 5.5234375 C 142.30125 5.5194425 142.30228 5.5157178 142.30273 5.5117188 C 141.89873 5.300719 141.5058 5.0637654 141.0918 4.8847656 C 135.43618 2.4410181 129.6336 1.2439453 123.77539 1.2792969 z M 123.45898 66.875 C 121.54745 66.891471 119.62664 67.059938 117.69727 67.382812 C 114.45527 67.923812 111.35567 68.813845 108.51367 70.464844 C 106.05567 71.891842 103.87839 73.602409 103.15039 76.566406 C 102.49239 78.880404 102.59431 81.056689 104.32031 82.929688 C 105.27131 83.415687 106.00949 84.172532 106.77148 84.894531 C 107.89348 85.95753 108.98609 86.170202 110.12109 84.908203 C 111.96109 82.860205 114.21724 83.553422 116.49023 83.857422 C 119.05923 84.200422 120.72181 85.315956 121.13281 88.001953 C 126.89681 88.705952 120.21619 89.07597 119.99219 89.917969 C 120.36519 90.015969 120.73723 90.184125 121.11523 90.203125 C 125.43223 90.420125 129.70561 90.095499 133.84961 88.8125 C 136.84761 87.886501 139.74978 86.684076 142.05078 84.455078 C 144.51736 82.058483 145.70764 79.265283 144.25977 75.830078 L 144.26172 75.828125 C 143.78272 74.179127 142.59722 73.072015 141.32422 72.041016 C 138.85322 70.039018 136.01803 68.783437 132.95703 68.023438 C 129.80703 67.238438 126.64487 66.847549 123.45898 66.875 z " /><path
   id="path58"
   style="fill:url(#SVGID_3_)"
   d="M 123.07812 101.27734 C 121.07717 101.24534 119.06731 101.43028 117.07031 101.61328 C 114.81331 101.82128 112.55522 102.05464 110.32422 102.43164 C 108.86322 102.67964 107.47731 103.16031 106.57031 104.57031 C 105.86931 105.66031 105.63028 105.58628 104.61328 104.73828 C 104.31328 104.48828 103.61455 104.18877 103.56055 104.25977 C 103.19955 104.73877 102.82928 105.28933 102.73828 105.86133 C 102.67928 106.22133 103.09373 106.6635 103.30273 107.0625 C 103.67273 107.7655 103.52864 108.31392 102.80664 108.66992 C 102.04164 109.04692 101.57541 108.73633 101.31641 107.98633 C 101.16641 107.55933 101.01233 107.13498 100.85938 106.70898 C 100.42382 105.27458 99.995523 104.89925 98.759766 105.03711 C 97.707771 105.15511 96.704812 105.4408 96.132812 106.4668 C 95.838817 106.9948 95.495761 107.24486 94.884766 106.88086 C 93.368771 105.97986 92.167573 107.08375 90.892578 107.59375 C 90.751578 107.65075 90.637859 108.23067 90.755859 108.38867 C 91.055859 108.79267 91.478047 109.358 91.873047 109.375 C 92.436042 109.4 93.015844 108.99158 93.589844 108.76758 C 93.856839 109.16258 94.127411 109.55691 94.691406 110.37891 C 94.663406 108.57891 95.555739 108.19169 96.677734 107.92969 C 97.266734 107.79269 97.837547 107.39814 98.310547 106.99414 C 98.848946 106.53465 99.307409 106.14545 99.994141 106.67383 C 99.694167 107.51023 99.264134 108.32408 99.115234 109.1875 C 98.810239 110.9485 97.789162 112.12652 96.326172 112.97852 C 95.914172 113.21752 95.229339 113.47197 94.902344 113.29297 C 93.642349 112.60097 92.954339 113.27234 92.277344 114.15234 L 92.275391 114.15234 C 92.082461 113.92209 91.801328 113.72337 91.714844 113.46094 C 91.254844 112.01494 90.452006 111.56017 89.166016 112.07812 C 87.505021 112.74812 87.504245 112.74822 86.28125 111.44727 C 85.094255 110.18427 84.764323 110.10603 83.236328 110.83398 C 82.062333 111.39598 80.910229 112.00617 79.740234 112.57617 C 78.877239 112.99517 78.239047 113.52589 78.123047 114.58789 C 78.011047 115.61489 77.336495 116.04959 76.3125 115.80859 C 75.069505 115.51559 74.004042 115.91675 72.998047 116.59375 C 68.660067 119.50875 64.706547 122.87411 61.101562 126.66406 C 60.366567 127.43506 60.342719 128.04366 61.011719 128.84766 C 62.257714 130.34761 63.514864 131.85027 64.630859 133.44727 C 68.132844 138.46122 71.569223 143.51955 75.033203 148.56055 C 75.036868 148.56329 75.041233 148.56745 75.044922 148.57031 C 76.179431 150.68083 77.411303 152.74749 78.429688 154.91406 C 80.361678 159.02506 82.169307 163.19289 84.029297 167.33789 C 85.545287 167.93389 86.993771 166.55425 88.384766 167.03125 C 89.841568 167.5293 90.831395 167.18969 91.662109 166.49609 C 91.481781 166.92307 91.406857 167.38517 91.546875 167.91602 C 91.952875 169.44697 92.733817 170.8742 92.757812 172.5332 C 92.759812 172.8902 93.251375 173.08405 93.609375 173.24805 C 95.183365 173.97105 95.627406 175.13066 94.941406 176.72266 C 94.778406 177.10366 94.789875 177.47145 95.046875 177.81445 C 96.864865 178.33045 98.68401 178.84333 100.5 179.36133 C 100.923 179.51333 101.33253 179.72664 101.76953 179.80664 C 105.39353 180.47264 109.01639 181.15023 112.65234 181.74023 C 114.04834 181.96723 115.47753 181.97889 116.89453 182.08789 C 117.18853 181.83789 117.60567 181.41702 117.88867 181.66602 C 119.10867 182.74297 120.6095 182.11103 121.9375 182.45703 C 122.2155 182.46403 122.49639 182.46952 122.77539 182.47852 C 124.78139 182.46852 126.79306 182.53978 128.78906 182.42578 C 130.84706 182.30778 132.89236 182.00811 134.94336 181.78711 C 137.13436 181.51111 139.34353 181.31936 141.51953 180.94336 C 148.73548 179.70236 155.65591 177.45789 162.38086 174.58789 C 163.21286 174.23289 163.76141 173.70703 164.06641 172.83203 C 165.39236 169.02508 166.75928 165.2345 168.11328 161.4375 L 168.11523 161.4375 C 169.02923 159.4825 169.93852 157.52522 170.85352 155.57422 C 170.82052 155.32122 170.7438 155.08227 170.7168 154.82227 C 170.4438 152.26327 168.88481 151.53528 166.75781 152.98828 C 165.96481 153.53128 165.15053 153.56558 164.26953 153.39258 C 166.44453 153.54658 167.37288 152.92775 167.79688 150.8418 C 167.98783 149.9068 168.49191 149.40483 169.25391 148.92383 C 170.93486 147.86283 170.93512 146.44009 169.57812 145.24609 C 170.62312 145.69909 170.77934 147.08583 171.40234 148.17383 C 171.96234 149.14783 172.41967 150.43647 174.01562 149.72852 C 176.57962 145.80352 179.14303 141.87812 181.70703 137.95312 C 181.41803 137.34417 180.87511 137.01905 180.28711 137.24805 C 178.89411 137.78905 177.63661 137.36183 176.34961 136.92188 C 175.72961 136.70888 175.01608 136.5538 174.45508 136.8418 C 172.71708 137.7368 172.36508 136.55103 171.95508 135.33203 C 171.74408 134.71103 171.6462 134.0885 171.6582 133.4375 C 171.67316 132.40081 171.27111 131.68205 170.25586 131.46289 C 171.10694 129.57543 174.58997 129.268 177.19141 128.66016 C 178.20741 128.42316 178.70148 127.69141 178.77148 126.69141 C 178.85348 125.45841 179.30678 124.45759 180.30273 123.68359 C 181.08773 123.07459 181.15983 122.2865 180.67188 121.4375 C 178.35488 119.6725 176.12122 117.78183 173.69922 116.17188 C 165.84527 110.94588 157.27364 107.28036 148.17969 104.81641 C 142.96393 103.20379 137.59701 102.36387 132.19531 101.71094 L 132.19336 101.71094 L 132.19141 101.71094 C 129.15506 101.55694 126.11747 101.32433 123.07812 101.27734 z M 92.517578 162.00586 C 93.337678 162.30457 93.920082 162.80574 94.138672 163.62109 C 94.021268 163.70673 93.905368 163.79567 93.802734 163.90625 C 93.723918 164.00039 93.62489 164.09093 93.539062 164.18359 C 93.680247 163.81855 93.678999 163.44144 93.380859 163.03711 C 93.080697 162.63212 92.747919 162.53481 92.408203 162.58984 C 92.440775 162.42829 92.47783 162.26703 92.503906 162.10352 C 92.513815 162.07194 92.509467 162.03775 92.517578 162.00586 z " /><path
   id="path100"
   style="fill:url(#SVGID_5_)"
   d="M 54.966797 134.63086 C 53.490563 134.65991 51.926108 134.96169 50.302734 135.59375 C 45.268739 137.55475 43.114125 141.82813 43.078125 147.07812 C 43.006125 158.33511 43.031703 169.59553 43.095703 180.85352 C 43.104703 182.31951 43.571172 183.78405 43.826172 185.24805 C 44.713171 185.65505 44.911594 184.8563 45.308594 184.4043 C 47.912591 181.4493 51.875799 181.81974 53.841797 185.17773 C 54.339796 186.02673 54.043765 186.49933 53.259766 186.86133 C 51.569767 187.64233 50.409827 186.89236 49.423828 185.56836 C 48.687829 184.57736 47.683671 184.1757 46.513672 184.5957 C 45.581673 184.9317 45.116469 185.70775 45.105469 186.71875 C 45.101469 187.29275 45.004953 187.88344 45.376953 188.39844 C 47.947951 192.11343 51.631379 193.71617 55.984375 193.32617 C 60.60537 192.90917 63.967158 190.4062 65.785156 186.0332 C 66.651155 183.95021 66.828078 181.74834 66.830078 179.52734 C 66.843078 169.57135 66.855078 159.61424 66.830078 149.65625 C 66.825078 148.03625 66.652531 146.41678 66.519531 144.80078 C 66.079969 139.48947 61.363809 134.50496 54.966797 134.63086 z M 66.425781 192.71094 C 65.814782 193.03894 65.175703 193.32422 64.595703 193.69922 C 61.003707 196.02422 57.329824 198.0692 52.798828 197.4082 C 52.013829 197.7792 51.312734 197.51837 50.552734 197.23438 C 49.262736 196.75338 48.113233 196.01584 46.865234 195.46484 C 44.469237 194.40584 43.252656 195.16071 43.222656 197.7207 C 43.196656 199.8057 43.559687 201.85433 43.304688 203.98633 C 42.975688 206.74433 43.209328 209.57119 43.236328 212.36719 C 43.241328 212.97319 42.936423 213.74561 43.732422 214.09961 C 44.517421 214.44661 45.085766 213.94698 45.634766 213.45898 C 46.205765 212.94898 46.790673 212.19889 47.638672 212.83789 C 48.462671 213.45489 47.988203 214.25413 47.658203 214.95312 C 47.089204 216.16112 47.155064 217.23231 48.289062 218.07031 C 49.391061 218.88431 50.337579 218.46869 51.267578 217.67969 C 52.179577 216.91069 53.217892 216.34922 54.462891 216.44922 C 55.26589 216.51322 55.992796 216.85655 55.466797 217.81055 C 54.581798 219.41755 55.566952 221.23742 54.751953 222.85742 C 54.500953 223.35542 54.890313 223.97869 55.320312 224.42969 C 56.220629 225.37626 57.181943 226.18567 58.384766 226.35156 C 58.188815 226.38733 57.991672 226.46306 57.810547 226.61133 C 56.098549 228.02033 54.504671 229.55683 53.138672 231.29883 C 52.511673 232.10183 53.183298 234.30941 54.154297 234.94141 C 55.316296 235.69741 55.885157 234.83969 56.535156 234.05469 C 57.960155 232.33869 58.461221 232.26363 60.449219 233.39062 C 61.054218 233.73462 61.712735 233.94462 62.302734 233.64062 C 63.398733 233.07163 64.699735 232.99187 65.677734 232.17188 C 66.745733 230.28488 66.805406 228.17519 66.816406 226.11719 C 66.867406 215.7142 66.847312 205.30924 66.820312 194.90625 C 66.817313 194.17425 66.562781 193.44494 66.425781 192.71094 z M 44.498047 219.20703 C 43.73586 219.14378 40.666094 221.66688 40.691406 227.73438 C 40.695406 228.61337 40.82525 229.51014 41.03125 230.36914 C 41.911249 234.05114 47.131407 231.36225 48.066406 230.40625 C 48.292406 230.17525 48.524953 229.94875 48.751953 229.71875 C 49.533952 228.92575 49.501156 226.90208 48.910156 226.33008 C 48.309157 225.75108 48.376063 225.18384 49.039062 224.71484 C 49.169062 224.62484 49.33561 224.58491 49.474609 224.50391 C 49.810609 224.30291 49.796765 224.05689 49.509766 223.83789 C 49.355766 223.71589 49.148797 223.66512 48.966797 223.57812 C 48.614797 223.41413 48.579235 223.19459 48.865234 222.93359 C 49.015234 222.79659 49.189078 222.68992 49.330078 222.54492 C 49.925078 221.94392 49.849687 221.51345 49.054688 221.18945 C 47.925689 220.73045 46.834171 220.83792 45.826172 221.54492 C 45.596172 221.70592 45.409156 221.96859 45.160156 222.05859 C 44.892157 222.15859 44.447781 222.2377 44.300781 222.0957 C 44.088781 221.8927 43.955625 221.45697 44.015625 221.16797 C 44.089625 220.79297 44.436172 220.48042 44.576172 220.10742 C 44.674172 219.84442 44.75714 219.38491 44.619141 219.25391 C 44.590453 219.22697 44.548859 219.21125 44.498047 219.20703 z M 66.234375 237.53516 C 66.015838 237.54901 65.72639 237.68805 65.337891 237.93555 C 64.078892 238.74155 62.864077 239.62077 61.580078 240.38477 C 57.529082 242.79376 53.358808 243.10133 49.132812 240.86133 C 47.757814 240.13033 46.465671 239.24183 45.138672 238.42383 C 44.749672 238.18583 44.393562 237.84142 43.976562 237.73242 C 43.732563 237.66942 43.219906 237.90977 43.128906 238.13477 C 42.915906 238.66877 42.86325 239.26966 42.78125 239.84766 C 42.104251 244.67765 41.428624 249.5069 40.765625 254.33789 C 40.498625 256.29289 40.946532 258.11128 42.019531 259.73828 C 45.083528 264.38228 49.552037 266.5347 55.082031 266.9707 C 59.998026 266.4687 64.324816 264.65742 67.382812 260.48242 C 68.858811 258.46742 69.507749 256.21301 68.96875 253.66602 C 68.67475 252.27102 68.605156 250.83006 68.410156 249.41406 C 67.912157 245.80607 67.425812 242.19865 66.882812 238.59766 C 66.768438 237.83891 66.598603 237.51207 66.234375 237.53516 z " /><path
   id="path163"
   style="fill:url(#SVGID_8_)"
   d="M 121.57617 197.44922 C 121.57368 197.45026 121.57085 197.45014 121.56836 197.45117 C 118.14094 197.67883 114.70055 197.79457 111.28516 198.1543 C 103.35016 198.9973 95.711414 201.09736 88.273438 203.94336 C 86.090444 204.77736 86.085141 204.86437 86.494141 207.27734 C 87.222138 211.57834 87.658453 215.90251 87.564453 220.27148 C 87.530453 221.89548 87.586516 223.52144 87.603516 225.14844 C 87.827513 225.71744 87.731453 226.32411 87.814453 226.91211 C 88.113453 229.02211 89.206912 229.51169 91.003906 228.30469 C 91.715906 227.82869 92.433925 227.3955 93.294922 227.3125 C 94.415919 227.2045 95.439737 227.05719 96.052734 225.86719 C 96.435734 225.11819 97.146047 225.41367 97.748047 225.76367 C 99.641041 226.86367 101.79241 226.42991 103.81641 226.75391 C 104.28207 226.82964 104.75204 226.69314 105.02148 226.27344 C 105.04374 226.29834 105.06519 226.32879 105.08789 226.35156 C 105.27289 226.39656 105.45848 226.40795 105.64648 226.37695 C 105.74973 226.30246 105.84783 226.25316 105.94727 226.20117 C 106.52101 226.71302 106.71008 227.43472 106.84961 228.20508 C 107.08761 229.51008 107.64064 230.54758 109.18164 230.64258 C 109.89164 230.68658 110.32238 231.07072 110.60938 231.76172 C 111.25737 233.32472 111.57542 233.46258 113.23242 233.26758 C 113.87242 233.19158 114.52834 233.03333 115.15234 233.11133 C 116.05534 233.22133 116.55269 233.98847 116.05469 234.60547 C 115.16287 235.71646 115.56302 236.67992 115.97656 237.67773 C 115.84113 237.79073 115.72922 237.92016 115.64844 238.07812 C 115.30344 239.07512 115.58341 239.88817 116.44141 240.45117 C 117.28341 241.00417 118.03411 240.59872 118.78711 240.13672 C 119.67611 239.59172 120.34914 238.82089 121.24414 237.96289 C 120.10314 239.58389 120.22537 240.92181 121.52734 242.13281 C 122.75034 243.27381 123.87775 242.67347 124.96875 241.85547 C 125.87075 244.64347 127.25266 245.02402 129.47266 243.12305 C 130.09866 242.58405 130.60258 242.5643 131.14258 243.1543 C 132.41858 244.5443 132.22424 246.98952 130.69727 248.85352 C 129.45927 250.36249 128.29984 249.41748 127.08984 248.77148 C 123.64287 246.93351 120.28858 249.66451 119.64258 253.02148 C 119.53858 253.56048 119.79416 254.02459 120.16016 254.43359 C 121.18316 255.57659 122.49326 255.92006 123.86523 255.41406 C 125.47023 254.82206 126.89142 254.83617 128.23242 255.95117 C 130.17442 256.09417 132.12064 256.17553 134.05664 256.39453 C 144.06261 257.52153 153.73278 259.97044 162.96875 264.02344 C 165.16975 264.98844 167.32451 266.06216 169.52148 267.03516 C 169.93948 267.22116 170.4625 267.16575 170.9375 267.21875 C 170.8905 266.73275 170.9143 266.22467 170.7793 265.76367 C 170.6373 265.27167 170.34614 264.82252 170.11914 264.35352 C 166.40114 256.72052 163.67375 248.74966 161.96875 240.42969 C 161.53975 238.33369 161.11745 236.23374 160.68945 234.13477 C 160.6881 234.13478 160.6869 234.13475 160.68555 234.13477 C 160.66266 233.4864 160.68543 232.82986 160.60352 232.1875 C 159.73852 225.31753 159.52153 218.43985 160.26953 211.54688 C 160.43153 210.05988 160.67139 208.58149 160.90039 207.10352 C 161.16439 205.41352 161.14839 205.30461 159.52539 204.59961 C 158.63639 204.21461 157.6953 203.95081 156.7793 203.63281 C 155.5003 203.69081 154.27898 203.9383 153.58398 205.1543 C 153.38966 205.49402 153.29206 205.97147 153.26758 206.51367 C 153.18579 205.40791 152.74659 204.34918 151.54492 203.39453 C 151.45592 203.32253 151.42953 203.16211 151.39453 203.03711 C 151.14853 202.14811 150.45548 201.8955 149.64648 201.8125 C 149.14448 201.7625 148.57625 201.88912 148.15625 201.57812 C 146.81125 200.58815 145.87089 201.26595 144.96289 202.25195 C 143.03889 204.34195 143.34166 206.90075 145.72266 208.59375 C 148.12163 210.30275 148.78319 212.1208 147.99219 214.8418 C 147.42919 216.78577 145.23849 217.53505 143.35352 216.37305 C 143.95752 215.66605 144.86738 215.64983 145.60938 215.29883 C 146.63135 214.81883 147.35928 213.79761 146.61328 212.97461 C 145.51028 211.75761 144.71109 210.14108 143.12109 209.45508 C 142.23209 209.07108 141.62317 208.54562 141.07617 207.76562 C 139.04517 204.87065 139.01712 204.87723 142.37109 204.11523 C 143.07209 203.95523 143.58195 203.64978 143.75195 202.92578 C 143.88295 202.36278 143.71728 201.79878 143.23828 201.55078 C 141.53528 200.66178 139.97063 199.2183 137.84766 199.6543 C 136.51366 199.9263 136.17014 199.45681 136.36914 198.25781 C 135.88514 198.22381 135.40185 198.1912 134.92188 198.1582 C 134.31688 197.7542 133.5818 198.17561 132.9668 197.84961 C 129.1698 197.71661 125.37317 197.58222 121.57617 197.44922 z M 153.2832 207.14062 C 153.37291 208.8976 154.09083 211.0556 155.03906 211.88281 C 155.64006 212.40581 156.7852 212.89301 156.1582 213.83398 C 155.5062 214.81198 154.37923 214.31239 153.49023 213.90039 C 152.30226 213.34839 152.39641 212.38805 152.56641 211.24805 C 152.76635 209.89424 153.23435 208.49167 153.2832 207.14062 z M 94.839844 232.35742 C 94.613713 232.35445 94.38175 232.42548 94.140625 232.61523 C 93.440628 233.16723 93.553375 233.85859 93.859375 234.55859 C 94.279375 235.52559 94.301185 236.44341 93.617188 237.31641 C 93.105188 237.96741 93.336909 238.56025 93.878906 239.03125 C 94.865903 239.88925 95.012922 240.99394 95.044922 242.21094 C 95.066922 243.11194 95.270516 244.01451 95.478516 244.89648 C 95.674513 245.73048 96.004315 246.58164 96.945312 246.80664 C 97.860312 247.02564 98.311422 246.2225 98.857422 245.6875 C 99.876419 244.6915 100.86578 243.65603 101.92578 242.70703 C 102.94678 241.79303 103.49951 241.78864 104.39648 242.80664 C 105.11848 243.62364 105.9008 243.91833 106.9668 243.86133 C 108.2278 243.79133 108.35708 244.02588 107.95508 245.17188 C 107.82708 245.53885 107.66748 245.89681 107.52148 246.25781 C 107.42748 246.61381 107.56411 246.73944 107.91211 246.64844 C 108.61511 246.64844 109.31958 246.68472 110.01758 246.63672 C 111.53358 246.53272 113.04655 246.38391 114.56055 246.25391 C 114.87855 246.08991 115.18408 245.91861 114.95508 245.47461 C 114.63008 244.29061 113.76469 243.666 112.67969 243.25 C 112.13869 243.043 111.48728 242.90853 111.11328 242.51953 C 110.03228 241.39653 108.6693 240.82667 107.2793 240.26367 C 106.5573 239.96967 105.82281 239.69003 105.13281 239.33203 C 103.89381 238.68803 103.84266 237.64748 105.09766 237.02148 C 105.81966 236.66248 106.70725 236.60109 107.53125 236.49609 C 108.36825 236.39109 109.22264 236.44503 110.05664 236.33203 C 110.29164 236.29903 110.5642 235.95331 110.6582 235.69531 C 110.7152 235.53931 110.50103 235.12822 110.33203 235.07422 C 109.05003 234.67222 107.76722 234.20148 106.44922 234.02148 C 105.52922 233.89548 104.54335 234.14189 103.60938 234.33789 C 103.22538 234.41789 102.70175 234.72873 102.59375 235.05273 C 102.25275 236.07073 101.59125 236.66342 100.65625 237.10742 C 99.997253 237.41842 99.956151 237.93773 100.41016 238.55273 C 100.72616 238.98173 100.90553 239.51014 101.14453 239.99414 C 100.58553 240.02014 100.0237 240.09673 99.470703 240.05273 C 98.894706 240.00773 98.300812 239.90975 97.757812 239.71875 C 96.912815 239.41875 96.508487 238.78105 96.771484 237.87305 C 96.898484 237.43805 97.094406 237.01905 97.316406 236.62305 C 98.693403 234.16005 98.69746 234.16374 96.105469 232.88477 C 96.046469 232.85577 95.990594 232.82011 95.933594 232.78711 C 95.576094 232.57336 95.216726 232.36238 94.839844 232.35742 z " /><path
   id="path520"
   style="fill:url(#SVGID_25_)"
   d="M 195.45703 135.06641 C 191.96313 135.03466 188.53226 136.46696 186.4707 139.13086 C 186.23128 139.85854 186.26559 140.4867 186.45898 141.04492 C 186.16137 140.86136 185.77518 140.82035 185.23633 141.06641 C 184.13133 142.6064 183.7128 144.33789 183.7168 146.21289 C 183.7288 154.34788 183.71856 162.4822 183.72656 170.61719 C 183.72656 171.06419 183.82061 171.51186 183.84961 171.75586 C 184.84161 170.12086 185.70881 168.35894 186.88281 166.83594 C 188.98481 164.10694 191.29061 161.53518 193.47461 158.86719 C 195.74061 156.10119 197.96122 153.29967 200.19922 150.51367 C 200.41722 149.10667 199.64208 148.36481 198.45508 147.88281 C 197.08708 147.32681 196.38656 148.88052 195.22656 148.97852 C 197.83556 147.50552 197.96448 146.63481 195.89648 144.38281 C 195.54448 144.00081 195.20487 143.6042 194.79688 143.2832 C 194.1075 142.7382 193.42414 142.50955 192.73438 142.64844 C 192.6654 142.66233 192.59647 142.67989 192.52734 142.70117 C 192.18169 142.80758 191.83398 143.00789 191.48242 143.30664 C 189.79525 144.73699 188.99417 144.63434 187.80469 142.93164 C 187.99888 143.12109 188.19552 143.30712 188.38672 143.48438 C 189.47072 144.49037 190.75616 143.74042 191.91016 142.98242 C 192.10123 142.85669 192.31071 142.76571 192.52734 142.70117 C 192.59564 142.68083 192.66435 142.66296 192.73438 142.64844 C 193.87687 142.41154 195.22281 142.93827 195.93555 143.96875 C 196.58455 144.90775 197.39041 145.2135 198.44141 144.9375 C 199.25041 144.7245 200.07003 144.5492 200.83203 144.1582 C 201.22703 143.9542 201.74389 143.81619 202.08789 144.24219 C 202.50589 144.76019 202.12536 145.21091 201.81836 145.62891 C 201.39036 146.20791 200.7073 146.52561 200.2793 147.09961 C 199.8473 147.67961 199.79255 148.33414 200.31055 148.86914 C 200.87855 149.45514 201.34383 149.17006 201.67383 148.53906 C 203.03183 147.08206 203.99055 145.25147 205.81055 144.23047 C 206.46455 143.86447 206.63036 143.26545 206.31836 142.56445 C 206.10636 142.09145 205.91783 141.60539 205.67383 141.15039 C 203.45746 137.01727 199.41679 135.10239 195.45703 135.06641 z " /><path
   id="path541"
   style="fill:url(#SVGID_26_)"
   d="M 100.21289 183.38672 C 99.558372 183.41292 99.303937 183.84108 99.023438 184.94727 C 98.208438 188.16626 98.223189 191.39322 99.242188 194.57422 C 99.745187 196.14622 100.01578 196.26372 101.67578 196.01172 C 104.95278 195.51772 108.23268 195.03483 111.51367 194.54883 C 113.05167 194.32183 114.59 194.10386 116.125 193.88086 C 117.736 193.78786 119.35213 193.55091 120.95312 193.62891 C 125.98312 193.87491 131.01016 194.23864 136.03516 194.55664 C 136.03537 194.55633 136.0369 194.55695 136.03711 194.55664 C 139.42511 195.13464 142.81832 195.6795 146.19531 196.3125 C 147.20931 196.5025 147.78491 196.28325 148.12891 195.28125 C 149.29691 191.86325 149.29881 188.39968 148.50781 184.92969 C 148.17381 183.46269 147.99364 183.47792 146.43164 183.79492 C 143.76164 184.33492 141.08611 184.8298 138.41211 185.3418 C 132.95096 186.08559 116.88156 193.01192 116.14062 193.80664 C 116.54512 192.17182 114.7716 192.53833 114.03906 191.66992 C 115.42306 190.57492 116.95642 189.78919 118.60742 189.99219 C 119.67542 190.12519 120.53269 190.25105 121.17969 189.37305 C 121.86669 188.44105 122.1797 187.40725 121.2207 186.40625 C 120.6547 186.29425 120.08853 186.08908 119.51953 186.08008 C 113.37454 185.97208 107.34253 185.09422 101.39453 183.57422 C 100.89172 183.44609 100.5104 183.37481 100.21289 183.38672 z " /><path
   fill="url(#SVGID_38_)"
   d="m 88.487,109 c 0.525,0.125 0.897,0.122 1.12,0.302 0.146,0.117 0.194,0.6 0.073,0.745 -0.183,0.219 -0.536,0.348 -0.84,0.411 -0.741,0.153 -1.765,-0.376 -1.548,-0.683 0.278,-0.393 0.858,-0.571 1.195,-0.775 z"
   id="path793"
   style="fill:url(#SVGID_38_)" /><path
   fill="url(#SVGID_39_)"
   d="m 134.921,198.159 c -0.652,-0.104 -1.303,-0.205 -1.955,-0.307 0.653,0.102 1.303,0.204 1.955,0.307 z"
   id="path814"
   style="fill:url(#SVGID_39_)" /><path
   fill="url(#SVGID_46_)"
   d="m 142.023,124.062 c -0.084,0.068 -0.156,0.171 -0.236,0.179 -0.102,0.009 -0.211,-0.061 -0.316,-0.097 0.072,-0.063 0.141,-0.174 0.219,-0.182 0.101,-0.01 0.21,0.061 0.333,0.1 z"
   id="path961"
   style="fill:url(#SVGID_46_)" /><path
   id="path1119"
   style="fill:url(#SVGID_54_)"
   d="M 6.9023438 210.16602 C 5.639345 210.41102 5.0058594 212.1163 5.0058594 215.2793 L 5.0058594 229.91992 L 8.8515625 304.41406 C 9.1705622 308.66806 10.434533 310.78711 12.644531 310.78711 C 12.644531 310.78711 37.125673 310.1582 38.388672 310.1582 L 42.183594 309.52539 C 44.538591 309.94639 24.500366 305.89087 15.859375 305.04688 C 14.735376 305.04688 10.117188 220.9668 10.117188 220.9668 C 10.117188 220.9668 8.8341081 210.16602 7.5371094 210.16602 L 6.9023438 210.16602 z M 54.970703 288.35742 C 52.531706 288.97542 50.989796 290.22705 50.341797 292.12305 L 47.271484 301.0957 C 44.452487 309.33569 44.666113 314.67796 47.912109 317.12695 C 48.975108 317.49095 49.979782 317.59159 50.925781 317.43359 C 51.87078 317.27559 54.62288 315.85768 59.171875 313.17969 L 59.769531 313.38672 C 58.938532 315.81472 59.58608 318.48444 61.705078 321.39844 L 63.652344 322.06445 C 66.609341 323.07845 70.157832 320.83956 74.298828 315.35156 C 75.530827 313.80656 75.562671 312.79731 74.388672 312.32031 C 72.705674 314.19531 71.229124 315.63839 69.953125 316.65039 C 68.115127 317.68939 66.614218 318.12327 65.449219 317.94727 C 65.324219 317.87127 65.223766 317.73855 65.134766 317.56055 L 65.029297 317.85938 L 64.931641 317.82617 C 63.736642 317.41817 63.823267 314.55042 65.197266 309.23242 C 65.346265 308.80042 66.632812 305.04492 66.632812 305.04492 L 70.505859 295.67969 L 70.726562 293.08203 L 69.529297 292.67188 C 68.365298 292.27488 66.61906 294.12647 64.289062 298.23047 C 61.649065 305.93946 57.079165 310.83602 50.576172 312.91602 C 49.778173 312.64202 49.628954 311.23831 50.126953 308.69531 C 50.623953 306.15832 51.48122 303.05467 52.699219 299.38867 C 54.865217 295.34068 56.144969 292.73431 56.542969 291.57031 C 56.654969 290.27331 56.126702 289.20042 54.970703 288.35742 z " /><path
   id="path1141"
   style="fill:url(#SVGID_56_)"
   d="M 97.039062 206.53516 L 94.878906 207.00977 C 84.625917 212.03176 78.600592 227.25762 76.808594 252.68359 C 76.808594 264.48658 76.960813 272.26344 77.257812 276.02344 C 77.557812 279.78143 78.461658 286.12298 79.972656 295.04297 L 79.972656 295.67383 C 79.972656 295.67383 75.754735 308.94889 76.177734 310.21289 L 76.808594 310.21289 C 79.653591 304.7359 81.551001 301.99609 82.5 301.99609 C 86.751996 309.61509 89.450142 310.50967 91.244141 310.26367 C 93.627138 310.30267 95.027658 310.02611 97.222656 308.28711 C 99.339654 306.61111 101.11011 304.5744 102.53711 302.19141 C 103.30811 307.0354 105.08758 309.9238 107.89258 310.8418 C 109.01358 310.8418 109.9978 310.61325 110.8418 310.15625 C 111.6848 309.69725 113.82658 307.46684 117.26758 303.46484 L 117.90234 303.46484 C 117.90234 306.02884 119.37917 308.34788 122.32617 310.42188 L 124.38281 310.42188 C 127.50781 310.42188 130.14016 307.15209 132.28516 300.62109 C 132.95416 298.7581 132.65758 297.79261 131.39258 297.72461 C 130.40758 300.04261 129.47766 301.88491 128.59766 303.25391 C 127.19566 304.8359 125.91386 305.73041 124.75586 305.94141 C 124.61386 305.90841 124.47208 305.82073 124.33008 305.67773 L 124.33008 305.99414 L 124.22656 305.99414 C 122.96356 305.99414 122.11731 303.25243 121.69531 297.77344 L 121.69531 293.34961 L 122.32812 283.23242 L 121.69531 280.70508 L 120.43164 280.70508 C 119.20264 280.70508 118.15148 283.02421 117.27148 287.6582 C 117.27148 295.80919 114.53568 301.92014 109.05469 305.99414 C 108.21169 305.99414 107.61667 304.71348 107.26367 302.14648 C 106.91067 299.58349 106.71759 296.37086 106.68359 292.50586 C 107.41959 287.97486 107.78906 285.09619 107.78906 283.86719 C 107.47406 282.60319 106.62976 281.75789 105.25977 281.33789 C 103.15377 282.70489 102.09961 284.39449 102.09961 286.39648 L 102.09961 295.87891 C 102.09961 296.68791 102.12225 297.45613 102.15625 298.20312 C 101.14125 300.00012 100.0818 301.56164 98.966797 302.80664 C 97.154799 304.82664 95.532795 306.14286 94.091797 306.75586 C 90.5678 309.17586 89.767 306.21673 89.375 305.67773 C 87.816002 303.30874 86.645968 299.00887 86.292969 295.67188 L 86.292969 295.04102 C 86.292969 293.91602 87.7678 290.75564 90.716797 285.55664 C 100.83279 257.70467 105.89062 237.47617 105.89062 224.86719 C 105.89062 212.6452 102.94106 206.53516 97.039062 206.53516 z M 97.041016 210.96289 C 99.289013 211.24089 100.69377 213.18225 101.25977 216.78125 C 101.81977 220.38325 102.09961 223.06975 102.09961 224.84375 C 102.09961 226.61575 101.25931 233.57843 99.570312 245.73242 C 91.95032 273.96839 86.892388 288.08789 84.400391 288.08789 C 82.854392 288.08789 81.798281 280.50011 81.238281 265.32812 C 81.377281 261.92113 81.439875 257.64299 81.421875 252.5 C 81.402875 247.35301 81.973814 241.09274 83.132812 233.71875 C 86.996809 220.02276 90.929551 212.6478 94.935547 211.5918 L 97.041016 210.96289 z M 155.13086 275.07422 C 152.53186 275.07422 150.13239 275.48288 147.94141 276.29688 C 145.74541 277.11186 143.85189 278.27883 142.25391 279.79883 C 140.65691 281.31883 139.41058 283.15831 138.51758 285.32031 C 137.62458 287.48231 137.17773 289.89561 137.17773 292.55859 C 137.17773 295.22159 137.62558 297.63392 138.51758 299.79492 C 139.40958 301.95592 140.65591 303.79641 142.25391 305.31641 C 143.85189 306.83639 145.74641 308.00436 147.94141 308.81836 C 150.13239 309.63336 152.53086 310.03906 155.13086 310.03906 C 157.57586 310.03906 159.97031 309.78911 162.32031 309.28711 C 164.66975 308.78723 166.92637 307.97428 169.08789 306.8457 L 169.08789 289.45312 L 156.07031 289.45312 L 156.07031 296.22266 L 162.03906 296.22266 L 162.03906 301.62695 C 161.35006 302.00195 160.42362 302.37147 159.26562 302.73047 C 158.10564 303.09147 156.72889 303.27148 155.12891 303.27148 C 153.56291 303.27148 152.14495 303.00566 150.87695 302.47266 C 149.60695 301.93966 148.51736 301.19819 147.60938 300.24219 C 146.70138 299.28619 146.00358 298.15842 145.51758 296.85742 C 145.03058 295.55742 144.78711 294.12264 144.78711 292.55664 C 144.78711 291.02164 145.03058 289.5953 145.51758 288.2793 C 146.00458 286.9633 146.70038 285.82905 147.60938 284.87305 C 148.51836 283.91705 149.60695 283.17362 150.87695 282.64062 C 152.14495 282.10764 153.56291 281.8418 155.12891 281.8418 C 157.00989 281.8418 158.57608 282.10764 159.83008 282.64062 C 161.08208 283.17462 162.21089 283.95625 163.21289 284.99023 L 168.38281 279.35156 C 166.69181 277.78556 164.72436 276.68011 162.48438 276.03711 C 160.24438 275.39411 157.79486 275.07422 155.13086 275.07422 z M 186.48047 275.91992 L 172.09961 309.19336 L 180.18359 309.19336 L 182.95508 302.14453 L 195.88086 302.14453 L 198.74805 309.19336 L 207.01953 309.19336 L 192.54492 275.91992 L 186.48047 275.91992 z M 210.35742 275.91992 L 210.35742 309.19336 L 217.68945 309.19336 L 217.68945 283.67383 L 217.7832 283.67383 L 226.19531 309.19336 L 231.78906 309.19336 L 240.53125 283.67383 L 240.625 283.67383 L 240.625 309.19336 L 247.95703 309.19336 L 247.95703 275.91992 L 236.91211 275.91992 L 229.20508 297.63477 L 229.10938 297.63477 L 221.44922 275.91992 L 210.35742 275.91992 z M 255.00586 275.91992 L 255.00586 309.19531 L 278.45703 309.19531 L 278.45703 302.42773 L 262.33789 302.42773 L 262.33789 295.66016 L 276.76758 295.66016 L 276.76758 288.89258 L 262.33789 288.89258 L 262.33789 282.6875 L 277.61133 282.6875 L 277.61133 275.91992 L 255.00586 275.91992 z M 189.30078 285.60156 L 193.39062 295.94141 L 185.25977 295.94141 L 189.30078 285.60156 z " /><g
   id="g1186">&#10;	</g><g
   id="g1187">&#10;	</g><g
   id="g1188">&#10;	</g><g
   id="g1189">&#10;	</g><g
   id="g1190">&#10;	</g><g
   id="g1191">&#10;	</g>&#10;</svg>
